<svg width="1280" height="720" xmlns="http://www.w3.org/2000/svg" xmlns:xlink="http://www.w3.org/1999/xlink" overflow="hidden"><defs><linearGradient x1="640" y1="0" x2="640" y2="720" gradientUnits="userSpaceOnUse" spreadMethod="reflect" id="fill0"><stop offset="0" stop-color="#262626"/><stop offset="0.0714286" stop-color="#252627"/><stop offset="0.142857" stop-color="#252729"/><stop offset="0.214286" stop-color="#25272B"/><stop offset="0.285714" stop-color="#25272D"/><stop offset="0.357143" stop-color="#25282E"/><stop offset="0.428571" stop-color="#25282F"/><stop offset="0.5" stop-color="#242830"/><stop offset="0.571429" stop-color="#242931"/><stop offset="0.642857" stop-color="#242932"/><stop offset="0.714286" stop-color="#232933"/><stop offset="0.785714" stop-color="#232934"/><stop offset="0.857143" stop-color="#232934"/><stop offset="0.928571" stop-color="#222934"/><stop offset="1" stop-color="#222A35"/></linearGradient></defs><g><rect x="0" y="0" width="1280" height="720" fill="#FFFFFF"/><rect x="0" y="0" width="1280" height="720" fill="url(#fill0)"/><path d="M132 356.172C132 351.659 135.659 348 140.172 348L851.828 348C856.341 348 860 351.659 860 356.172L860 666.828C860 671.341 856.341 675 851.828 675L140.172 675C135.659 675 132 671.341 132 666.828Z" fill="#000000" fill-rule="evenodd" fill-opacity="0.270588"/><path d="M885 149.221C885 144.129 889.129 140 894.221 140L1244.78 140C1249.87 140 1254 144.129 1254 149.221L1254 665.779C1254 670.871 1249.87 675 1244.78 675L894.221 675C889.129 675 885 670.871 885 665.779Z" fill="#000000" fill-rule="evenodd" fill-opacity="0.270588"/><path d="M637 158.424C637 148.249 645.249 140 655.424 140L840.576 140C850.751 140 859 148.249 859 158.424L859 304.576C859 314.751 850.751 323 840.576 323L655.424 323C645.249 323 637 314.751 637 304.576Z" fill="#000000" fill-rule="evenodd" fill-opacity="0.6"/><path d="M23 31.3667C23 26.1936 27.1936 22 32.3667 22L89.6828 22C94.8559 22 99.0495 26.1936 99.0495 31.3667L99.0495 688.633C99.0495 693.806 94.8559 698 89.6828 698L32.3667 698C27.1936 698 23 693.806 23 688.633Z" fill="#000000" fill-rule="evenodd" fill-opacity="0.270588"/><path d="M384 155.228C384 146.818 390.818 140 399.228 140L590.772 140C599.182 140 606 146.818 606 155.228L606 307.772C606 316.182 599.182 323 590.772 323L399.228 323C390.818 323 384 316.182 384 307.772Z" fill="#000000" fill-rule="evenodd" fill-opacity="0.6"/><path d="M132 155.228C132 146.818 138.818 140 147.228 140L338.772 140C347.182 140 354 146.818 354 155.228L354 307.772C354 316.182 347.182 323 338.772 323L147.228 323C138.818 323 132 316.182 132 307.772Z" fill="#000000" fill-rule="evenodd" fill-opacity="0.6"/><path d="M22.5001 130.5 22.5001 196.5 22.1243 196.421C18.2315 194.711 15.5001 190.705 15.5001 186.038L15.5001 140.962C15.5001 136.295 18.2315 132.29 22.1243 130.579Z" stroke="#172C51" stroke-width="1.33333" stroke-miterlimit="8" fill="#BF9000" fill-rule="evenodd"/><g><g><g><path d="M60 144.75 60 144.75 43.375 160.583 45.1562 162.087 60 147.996 60 147.996 74.8438 162.087 76.625 160.583Z" fill="#D9D9D9"/><path d="M48.125 161.494 48.125 173.25 57.625 173.25 57.625 163.354 62.375 163.354 62.375 173.25 71.875 173.25 71.875 161.494 60 150.212 48.125 161.494Z" fill="#D9D9D9"/></g></g></g><g><g><g><path d="M75.0417 259.5C75.0417 260.015 74.4479 260.49 73.4583 260.846L73.4583 259.421C74.0125 259.263 74.5667 259.025 75.0417 258.788L75.0417 259.5ZM71.875 256.888 71.875 255.462C72.4292 255.304 72.9833 255.067 73.4583 254.829L73.4583 255.542C73.4583 256.056 72.8646 256.531 71.875 256.888ZM71.875 261.321C71.4 261.44 70.8458 261.519 70.2917 261.598L70.2917 260.054C70.8063 259.975 71.3604 259.896 71.875 259.817L71.875 261.321ZM68.7083 256.096C69.2229 256.017 69.7771 255.938 70.2917 255.858L70.2917 257.362C69.8167 257.481 69.2625 257.56 68.7083 257.64L68.7083 256.096ZM68.7083 261.796C68.1937 261.835 67.6792 261.875 67.125 261.875L67.125 260.292C67.6 260.292 68.1542 260.252 68.7083 260.212L68.7083 261.796ZM65.5417 257.917 65.5417 256.333C66.0167 256.333 66.5708 256.294 67.125 256.254L67.125 257.837C66.6104 257.877 66.0958 257.877 65.5417 257.917ZM65.5417 261.875C64.9875 261.875 64.4729 261.835 63.9583 261.796L63.9583 260.292C64.2354 260.292 64.4729 260.292 64.75 260.292 64.9875 260.292 65.2646 260.292 65.5417 260.292L65.5417 261.875ZM62.375 256.254C62.8896 256.294 63.4042 256.333 63.9583 256.333L63.9583 257.917C63.4042 257.917 62.8896 257.877 62.375 257.837L62.375 256.254ZM62.375 261.598C61.8208 261.519 61.2667 261.44 60.7917 261.321L60.7917 260.054C61.3063 260.133 61.8208 260.173 62.375 260.212L62.375 261.598ZM59.2083 257.362 59.2083 255.819C59.7229 255.898 60.2375 256.017 60.7917 256.056L60.7917 257.64C60.2375 257.56 59.6833 257.481 59.2083 257.362ZM59.2083 260.846C58.2188 260.45 57.625 259.975 57.625 259.5L57.625 259.421C57.625 259.421 57.625 259.421 57.6646 259.421 57.7833 259.46 57.8625 259.5 57.9813 259.5 58.3771 259.619 58.7729 259.698 59.2083 259.777L59.2083 260.846ZM52.875 255.462C53.1521 255.462 53.3896 255.502 53.6667 255.502L53.6667 255.542C53.6667 256.096 53.7854 256.65 54.0625 257.085 53.6667 257.085 53.2708 257.046 52.875 257.006L52.875 255.462ZM51.2917 250.712C51.8063 250.792 52.3208 250.91 52.875 250.95L52.875 252.533C52.3208 252.454 51.7667 252.375 51.2917 252.256L51.2917 250.712ZM51.2917 256.848C50.7375 256.769 50.1833 256.69 49.7083 256.571L49.7083 255.027C50.2229 255.106 50.7375 255.225 51.2917 255.265L51.2917 256.848ZM48.125 250.396 48.125 249.683C48.6 249.921 49.1146 250.119 49.7083 250.277L49.7083 251.742C48.7188 251.385 48.125 250.91 48.125 250.396ZM48.125 256.096C47.1354 255.7 46.5417 255.225 46.5417 254.75L46.5417 254.038C47.0167 254.275 47.5312 254.473 48.125 254.631L48.125 256.096ZM46.5417 243.746C47.0167 243.983 47.5312 244.181 48.125 244.34L48.125 245.804C47.1354 245.408 46.5417 244.933 46.5417 244.458L46.5417 243.746ZM51.2917 245.012 51.2917 246.596C50.7375 246.517 50.1833 246.438 49.7083 246.319L49.7083 244.775C50.2229 244.854 50.7375 244.933 51.2917 245.012ZM55.25 238.125C60.0792 238.125 63.9583 239.194 63.9583 240.5 63.9583 241.806 60.0792 242.875 55.25 242.875 50.4208 242.875 46.5417 241.806 46.5417 240.5 46.5417 239.194 50.4208 238.125 55.25 238.125ZM57.625 256.888C56.6354 256.492 56.0417 256.017 56.0417 255.542L56.0417 254.829C56.5167 255.067 57.0312 255.265 57.625 255.423L57.625 256.888ZM62.375 245.804 62.375 244.379C62.9292 244.221 63.4833 243.983 63.9583 243.746L63.9583 244.458C63.9583 244.973 63.3646 245.448 62.375 245.804ZM59.2083 246.556 59.2083 245.012C59.7229 244.933 60.2771 244.854 60.7917 244.775L60.7917 246.279C60.3167 246.398 59.7625 246.477 59.2083 246.556ZM56.0417 246.833 56.0417 245.25C56.5167 245.25 57.0708 245.21 57.625 245.171L57.625 246.754C57.1104 246.794 56.5958 246.794 56.0417 246.833ZM52.875 246.754 52.875 245.171C53.3896 245.21 53.9042 245.25 54.4583 245.25L54.4583 246.833C53.9042 246.794 53.3896 246.794 52.875 246.754ZM73.4583 251.583C73.4583 252.89 69.5792 253.958 64.75 253.958 59.9208 253.958 56.0417 252.89 56.0417 251.583 56.0417 250.277 59.9208 249.208 64.75 249.208 69.5792 249.208 73.4583 250.277 73.4583 251.583ZM75.8333 252.771 75.8333 251.583C75.8333 249.723 74.3688 248.377 71.5188 247.625 70.45 247.348 69.2229 247.11 67.8375 246.992 67.8771 246.833 67.8771 246.635 67.8771 246.438 67.8771 245.329 67.3625 244.379 66.2937 243.667L66.2937 240.5C66.2937 238.64 64.8292 237.294 61.9792 236.542 60.1188 236.027 57.7438 235.75 55.2104 235.75 51.8854 235.75 44.1271 236.225 44.1271 240.5L44.1271 244.458C44.1271 245.567 44.6417 246.517 45.7104 247.229L45.7104 247.981C44.7604 248.654 44.1271 249.565 44.1271 250.792L44.1271 254.75C44.1271 256.61 45.5917 257.956 48.4417 258.708 50.3021 259.223 52.6771 259.5 55.2104 259.5 55.2104 261.36 56.675 262.706 59.525 263.458 61.3854 263.973 63.7604 264.25 66.2937 264.25 69.6188 264.25 77.3771 263.775 77.3771 259.5L77.3771 255.542C77.4167 254.433 76.9021 253.483 75.8333 252.771Z" fill="#D9D9D9"/></g></g></g><g><g><g><path d="M64.9167 334.954C63.9667 334.954 63.175 334.163 63.2146 333.173 63.2146 332.223 64.0062 331.431 64.9563 331.431 65.9062 331.431 66.6979 332.223 66.6979 333.173 66.6979 333.648 66.5 334.083 66.1833 334.4 65.8271 334.756 65.3917 334.954 64.9167 334.954ZM63.2146 329.452C62.3438 329.769 61.6708 330.442 61.2354 331.233 60.6813 332.302 60.6021 333.529 61.0375 334.638L62.9375 338.754 64.2042 341.367C64.3229 341.644 64.6 341.802 64.9167 341.802 65.2333 341.802 65.5104 341.644 65.6292 341.367L66.8958 338.754 68.7958 334.677C68.9938 334.202 69.0729 333.688 69.0729 333.173 69.0729 330.402 66.2229 328.304 63.2146 329.452Z" fill="#D9D9D9"/><path d="M56.2083 351.817 49.875 348.65 49.875 335.746 56.2083 338.913 56.2083 351.817ZM48.2917 348.65 43.5417 351.025 43.5417 338.121 48.2917 335.746 48.2917 348.65ZM70.2208 335.35 70.2208 335.35 69.2312 337.487 70.4583 338.121 70.4583 351.025 65.7083 348.65 65.7083 343.385 64.125 343.385 64.125 348.65 57.7917 351.817 57.7917 338.913 60.6021 337.487 59.6125 335.35 57 336.656 49.0833 332.698 41.1667 336.656 41.1667 354.865 49.0833 350.906 57 354.865 64.9167 350.906 72.8333 354.865 72.8333 336.656 70.2208 335.35Z" fill="#D9D9D9"/></g></g></g></g></svg>